<svg id="SvgjsSvg1065" width="288" height="288" xmlns="http://www.w3.org/2000/svg" version="1.1" xmlns:xlink="http://www.w3.org/1999/xlink" xmlns:svgjs="http://svgjs.com/svgjs"><defs id="SvgjsDefs1066"></defs><g id="SvgjsG1067"><svg xmlns="http://www.w3.org/2000/svg" viewBox="0 0 64 64" width="288" height="288"><g data-name="Layer 1" fill="#ffffff" class="color000 svgShape"><path fill="#ffc93c" d="M60.29,49.2l-2,1.99a.96687.96687,0,0,1-.7.29H18V45.5H57.59a.96687.96687,0,0,1,.7.29l2,1.99A1.008,1.008,0,0,1,60.29,49.2Z" class="color7c8c8e svgShape"></path><path d="M38.27,45.5a17.62136,17.62136,0,0,1-1.41,1.31,20.09651,20.09651,0,0,1-12.84,4.67H8a1.87807,1.87807,0,0,1-2-1.71V47.21A1.878,1.878,0,0,1,8,45.5Z" opacity=".1" fill="#ffffff" class="color000 svgShape"></path><path fill="#ff9a3c" d="M33.86,46.81a20.09651,20.09651,0,0,1-12.84,4.67H5a1.87807,1.87807,0,0,1-2-1.71V47.21A1.878,1.878,0,0,1,5,45.5H21.02a14.12287,14.12287,0,0,0,8.99-3.28,13.99941,13.99941,0,0,0-15.54-23.1l2.33,1.55a.99721.99721,0,0,1-.06,1.7L6.65,28.07a.99518.99518,0,0,1-1.49-.87V14.78a.99541.99541,0,0,1,1.55-.83L9.04,15.5A19.98456,19.98456,0,0,1,33.86,46.81Z" class="color4cd0f7 svgShape"></path><path d="M40.21,25.9A6.0538,6.0538,0,0,0,40,27.5a1.99913,1.99913,0,0,1-3.96.39A1.66745,1.66745,0,0,1,36,27.5a10.49567,10.49567,0,0,1,2.13-6.34A19.32378,19.32378,0,0,1,40.21,25.9Z" opacity=".1" fill="#ffffff" class="color000 svgShape"></path><path fill="#ff6f3c" d="M60.91,23.91,56.96,32.9a.98758.98758,0,0,1-1.67.24l-1.07-1.26-4.77-5.63a1.00841,1.00841,0,0,1,.57-1.63L52.91,24A6.49319,6.49319,0,0,0,40,25a1.99913,1.99913,0,0,1-3.96.39A1.66745,1.66745,0,0,1,36,25a10.50315,10.50315,0,0,1,20.36-3.6,11.1005,11.1005,0,0,1,.47,1.76l2.49-.53.47-.1A.99579.99579,0,0,1,60.91,23.91Z" class="colora36ba7 svgShape"></path></g></svg></g></svg>