<svg id="SvgjsSvg1059" width="288" height="288" xmlns="http://www.w3.org/2000/svg" version="1.1" xmlns:xlink="http://www.w3.org/1999/xlink" xmlns:svgjs="http://svgjs.com/svgjs"><defs id="SvgjsDefs1060"></defs><g id="SvgjsG1061"><svg xmlns="http://www.w3.org/2000/svg" viewBox="0 0 16 16" width="288" height="288"><path fill="#ff9a3c" d="M14 0H2a2 2 0 0 0-2 2v12a2 2 0 0 0 2 2h12a2 2 0 0 0 2-2V2a2 2 0 0 0-2-2z" class="color0277BD svgShape"></path><path fill="#ffc93c" d="M7 12a1 1 0 01-1 1H3a1 1 0 01-1-1V3a1 1 0 011-1h3a1 1 0 011 1v9zM14 8a1 1 0 01-1 1h-3a1 1 0 01-1-1V3a1 1 0 011-1h3a1 1 0 011 1v5z" class="colorECEFF1 svgShape"></path></svg></g></svg>